<svg xmlns="http://www.w3.org/2000/svg" xmlns:xlink="http://www.w3.org/1999/xlink" version="1.1" x="0px" y="0px" viewBox="0 0 100 125" style="enable-background:new 0 0 100 100;" xml:space="preserve"><path d="M36.7,77.9c-0.1,0-0.2,0-0.3,0c-0.5-0.1-0.8-0.7-0.7-1.2l12.5-45.6c0.1-0.5,0.7-0.8,1.2-0.7c0.5,0.1,0.8,0.7,0.7,1.2  L37.7,77.2C37.5,77.6,37.1,77.9,36.7,77.9z"/><path d="M69.8,81.9c-0.3,0-0.5-0.1-0.7-0.3L36.8,49.3c-0.4-0.4-0.4-1,0-1.4s1-0.4,1.4,0l32.3,32.3c0.4,0.4,0.4,1,0,1.4  C70.3,81.8,70.1,81.9,69.8,81.9z"/><path d="M30.6,51.7c-5.2,0-9.5-4.2-9.5-9.5s4.2-9.5,9.5-9.5c5.2,0,9.5,4.2,9.5,9.5S35.8,51.7,30.6,51.7z M30.6,34.8  c-4.1,0-7.5,3.4-7.5,7.5s3.4,7.5,7.5,7.5s7.5-3.4,7.5-7.5S34.7,34.8,30.6,34.8z"/><path d="M38.5,81.8c-0.6,0-1-0.4-1-1V66.1c0-0.6,0.4-1,1-1s1,0.4,1,1v14.7C39.5,81.4,39.1,81.8,38.5,81.8z"/><path d="M55.2,67.1H38.5c-0.6,0-1-0.4-1-1s0.4-1,1-1h16.7c0.6,0,1,0.4,1,1S55.7,67.1,55.2,67.1z"/><path d="M31.9,81.9c-0.5,0-1-0.4-1-1c0-0.6,0.4-1,1-1l6.6-0.1c0.5,0,1,0.4,1,1s-0.4,1-1,1L31.9,81.9C31.9,81.9,31.9,81.9,31.9,81.9z  "/><text x="0" y="115" fill="#000000" font-size="5px" font-weight="bold" font-family="'Helvetica Neue', Helvetica, Arial-Unicode, Arial, Sans-serif">Created by Alexis Hartford</text><text x="0" y="120" fill="#000000" font-size="5px" font-weight="bold" font-family="'Helvetica Neue', Helvetica, Arial-Unicode, Arial, Sans-serif">from the Noun Project</text></svg>